<svg xmlns="http://www.w3.org/2000/svg" viewBox="0 0 224.915 63">
  <defs>
    <style>
      .cls-1 {
        fill: #00a5a1;
      }

      .cls-2 {
        fill: #00aeef;
      }

      .cls-3 {
        fill: #fff;
      }
    </style>
  </defs>
  <g id="Logo_on_White" data-name="Logo on White" transform="translate(-0.033)">
    <g id="Group_1" data-name="Group 1" transform="translate(12.524 48.133)">
      <path id="Path_1" data-name="Path 1" class="cls-1" d="M117.78,126.28c24.462.926,61.892.884,90.732-1.684-15.62.126-37.177-.884-70.186-2.905C87.213,118.533,64.1,123.08,29.7,129.775c26.735-2.484,62.523-4.463,88.08-3.495" transform="translate(-29.7 -120.666)"/>
      <path id="Path_2" data-name="Path 2" class="cls-2" d="M139.06,134.505c-20.841-.8-48.5.379-72.46,2.189,18.483.168,47.071.968,78.607,3.747,44.966,3.958,86.1-5.347,101.932-9.642-29.683,4.505-78.4,4.8-108.079,3.705" transform="translate(-51.064 -126.533)"/>
    </g>
    <path id="Path_3" data-name="Path 3" class="cls-3" d="M79.8,52.472h3.41L88.01,25.4H84.558Z" transform="translate(-46.182 -14.706)"/>
    <g id="Group_2" data-name="Group 2" transform="translate(17.479 10.442)">
      <path id="Path_4" data-name="Path 4" class="cls-3" d="M50.492,46.188a3.416,3.416,0,0,1-3.284,2.779,2.233,2.233,0,0,1-1.768-.758,2.343,2.343,0,0,1-.463-1.937l.505-2.989a2.319,2.319,0,0,1,1.095-1.431l4.589-2.4s.211-.126.505-.295Zm5.137-19.7A4.881,4.881,0,0,0,51.8,24.8a7.26,7.26,0,0,0-6.821,5.768L44.3,34.442l3.495-.379.589-3.368a3.05,3.05,0,0,1,2.905-2.484,2.063,2.063,0,0,1,1.558.674,1.941,1.941,0,0,1,.379,1.684l-.463,2.652c-.337,2.021-2.779,3.326-2.821,3.326l-4.589,2.4a6.413,6.413,0,0,0-3.242,4.295l-.547,2.989a5.363,5.363,0,0,0,1.053,4.421A5.19,5.19,0,0,0,46.66,52.42a7.079,7.079,0,0,0,4.168-1.389,3.684,3.684,0,0,0,2.695,1.137h.253l.589-3.41h-.337a.488.488,0,0,1-.421-.168.585.585,0,0,1-.084-.463L56.6,30.694a4.777,4.777,0,0,0-.968-4.21" transform="translate(-41.468 -24.8)"/>
    </g>
    <path id="Path_5" data-name="Path 5" class="cls-3" d="M96.368,9.2h-3.41L92.2,13.579h3.41Z" transform="translate(-53.362 -5.327)"/>
    <g id="Group_3" data-name="Group 3" transform="translate(0.033)">
      <path id="Path_6" data-name="Path 6" class="cls-3" d="M17.7,2.147A6.075,6.075,0,0,0,12.9,0,9.1,9.1,0,0,0,4.314,7.284L3.893,9.726a6.819,6.819,0,0,0,.884,4.758L11.6,24.757a4,4,0,0,1,.505,2.61L11.471,30.9a4.973,4.973,0,0,1-4.673,4,3.218,3.218,0,0,1-2.526-1.095A3.337,3.337,0,0,1,3.6,31.03l1.053-6.1L1.156,25.3.146,30.9a6.357,6.357,0,0,0,1.263,5.263,6.1,6.1,0,0,0,4.842,2.147A9.1,9.1,0,0,0,14.84,31.03l.632-3.537a7.1,7.1,0,0,0-.926-4.884L7.724,12.336a3.619,3.619,0,0,1-.463-2.484L7.682,7.41a4.973,4.973,0,0,1,4.673-4,3.218,3.218,0,0,1,2.526,1.095,3.337,3.337,0,0,1,.674,2.779l-.926,5.263,3.495-.379.842-4.758A6.18,6.18,0,0,0,17.7,2.147" transform="translate(-0.033 0)"/>
      <path id="Path_7" data-name="Path 7" class="cls-3" d="M155.4,13.431l3.495-.379,1.01-5.642a6.357,6.357,0,0,0-1.263-5.263A6.1,6.1,0,0,0,153.8,0a9.1,9.1,0,0,0-8.589,7.284L141.046,30.9a6.357,6.357,0,0,0,1.263,5.263,6.1,6.1,0,0,0,4.842,2.147,9.1,9.1,0,0,0,8.589-7.284l.926-5.347h-3.41l-.926,5.221a4.973,4.973,0,0,1-4.673,4,3.218,3.218,0,0,1-2.526-1.095,3.338,3.338,0,0,1-.674-2.779l4.168-23.62a4.973,4.973,0,0,1,4.673-4,3.218,3.218,0,0,1,2.526,1.095,3.338,3.338,0,0,1,.674,2.779Z" transform="translate(-81.61 0)"/>
      <path id="Path_8" data-name="Path 8" class="cls-3" d="M106.111,1.521,100.3,34.4a3.621,3.621,0,0,0,.716,3.031,3.513,3.513,0,0,0,2.779,1.221h.253l.589-3.41H104.3a.543.543,0,0,1-.463-.211.607.607,0,0,1-.126-.547L109.605,1.1Z" transform="translate(-58.043 -0.637)"/>
      <path id="Path_9" data-name="Path 9" class="cls-3" d="M312.313,30.9,311.428,36h-5.473l.884-4.968a3.417,3.417,0,0,1,3.284-2.779,2.233,2.233,0,0,1,1.768.758,2.348,2.348,0,0,1,.421,1.895m2.189-4.337A5.19,5.19,0,0,0,310.46,24.8a7.577,7.577,0,0,0-7.2,6.1L300.566,46.23a5.363,5.363,0,0,0,1.053,4.421,5.19,5.19,0,0,0,4.042,1.768,7.577,7.577,0,0,0,7.2-6.1l.674-3.873-3.495.379-.589,3.368a3.416,3.416,0,0,1-3.284,2.779,2.233,2.233,0,0,1-1.768-.758,2.343,2.343,0,0,1-.463-1.937l1.221-6.9h8.884l1.474-8.379a5.2,5.2,0,0,0-1.01-4.421" transform="translate(-173.976 -14.358)"/>
      <path id="Path_10" data-name="Path 10" class="cls-3" d="M436.044,30.9,433.35,46.23a3.417,3.417,0,0,1-3.284,2.779,2.233,2.233,0,0,1-1.768-.758,2.343,2.343,0,0,1-.463-1.937l2.695-15.326a3.417,3.417,0,0,1,3.284-2.779,2.233,2.233,0,0,1,1.768.758,2.207,2.207,0,0,1,.463,1.937m2.358-4.337A5.19,5.19,0,0,0,434.36,24.8a7.578,7.578,0,0,0-7.2,6.1L424.466,46.23a5.362,5.362,0,0,0,1.053,4.421,5.19,5.19,0,0,0,4.042,1.768,7.577,7.577,0,0,0,7.2-6.1l2.695-15.326a5.363,5.363,0,0,0-1.053-4.421" transform="translate(-245.71 -14.358)"/>
    </g>
    <path id="Path_11" data-name="Path 11" class="cls-3" d="M415.5,9.2l-.8,4.379h3.452L418.91,9.2Z" transform="translate(-240.079 -5.327)"/>
    <path id="Path_12" data-name="Path 12" class="cls-3" d="M402.4,52.472h3.41L410.568,25.4h-3.41Z" transform="translate(-232.958 -14.706)"/>
    <g id="Group_4" data-name="Group 4" transform="translate(78.234 5.221)">
      <path id="Path_13" data-name="Path 13" class="cls-3" d="M197.15,31.31l-2.695,15.326a3.416,3.416,0,0,1-3.284,2.779,2.233,2.233,0,0,1-1.768-.758,2.343,2.343,0,0,1-.463-1.937l2.695-15.326a3.416,3.416,0,0,1,3.284-2.779,2.233,2.233,0,0,1,1.768.758,2.088,2.088,0,0,1,.463,1.937m-1.684-5.81a7.306,7.306,0,0,0-6.9,5.852l-2.695,15.283a4.754,4.754,0,0,0,4.842,5.852,7.269,7.269,0,0,0,6.9-5.852l2.695-15.326a4.759,4.759,0,0,0-4.842-5.81" transform="translate(-185.769 -19.984)"/>
      <path id="Path_14" data-name="Path 14" class="cls-3" d="M512.418,26.526a4.869,4.869,0,0,0-3.873-1.726,7.391,7.391,0,0,0-6.947,5.894l-.295,1.642a5.451,5.451,0,0,0,1.179,4.716l5.01,4.884a2.211,2.211,0,0,1,.421,2.021l-.421,2.274a3.452,3.452,0,0,1-3.284,2.779,2.233,2.233,0,0,1-1.768-.758,2.343,2.343,0,0,1-.463-1.937l.589-3.326-3.495.379-.505,2.821a5.363,5.363,0,0,0,1.053,4.421,5.19,5.19,0,0,0,4.042,1.768,7.577,7.577,0,0,0,7.2-6.1L511.281,44a5.451,5.451,0,0,0-1.179-4.716l-5.01-4.884a2.211,2.211,0,0,1-.421-2.021l.295-1.642A3.185,3.185,0,0,1,508,28.168a1.985,1.985,0,0,1,1.6.716,2.137,2.137,0,0,1,.421,1.768l-.547,3.158,3.495-.379.463-2.652a5.156,5.156,0,0,0-1.01-4.252" transform="translate(-366.812 -19.579)"/>
      <path id="Path_15" data-name="Path 15" class="cls-3" d="M471.121,24.8a6.218,6.218,0,0,0-4.295,1.937l-.084-1.642h-2.484L459.5,52.167h3.41l3.747-21.136a3.417,3.417,0,0,1,3.284-2.779,2.233,2.233,0,0,1,1.768.758,2.343,2.343,0,0,1,.463,1.937l-3.747,21.262h3.41l3.747-21.136a5.862,5.862,0,0,0-1.053-4.673,4.33,4.33,0,0,0-3.41-1.6" transform="translate(-344.251 -19.579)"/>
      <path id="Path_16" data-name="Path 16" class="cls-3" d="M233.22,24.8a6.218,6.218,0,0,0-4.294,1.937l-.084-1.642h-2.484L221.6,52.167h3.41l3.747-21.136a3.416,3.416,0,0,1,3.284-2.779,2.233,2.233,0,0,1,1.768.758,2.343,2.343,0,0,1,.463,1.937l-3.747,21.262h3.41l3.747-21.136a5.706,5.706,0,0,0-1.053-4.673,4.33,4.33,0,0,0-3.41-1.6" transform="translate(-206.514 -19.579)"/>
      <path id="Path_17" data-name="Path 17" class="cls-3" d="M272.121,24.8a6.218,6.218,0,0,0-4.295,1.937l-.084-1.642h-2.484L260.5,52.167h3.41l3.747-21.136a3.416,3.416,0,0,1,3.284-2.779,2.233,2.233,0,0,1,1.768.758,2.343,2.343,0,0,1,.463,1.937l-3.747,21.262h3.41l3.747-21.136a5.862,5.862,0,0,0-1.053-4.673,4.454,4.454,0,0,0-3.41-1.6" transform="translate(-229.036 -19.579)"/>
      <path id="Path_18" data-name="Path 18" class="cls-3" d="M391.074,21.284l.59-3.41h-3.41l.968-5.473-3.495.379-.884,5.094h-3.41l-.59,3.41h3.41l-3.452,19.7a3.621,3.621,0,0,0,.716,3.031A3.513,3.513,0,0,0,384.3,45.24h.253l.589-3.41H384.8a.543.543,0,0,1-.463-.211.607.607,0,0,1-.126-.547l3.495-19.788Z" transform="translate(-298.644 -12.4)"/>
      <path id="Path_19" data-name="Path 19" class="cls-3" d="M348.96,24.8a7.577,7.577,0,0,0-7.2,6.1L339.066,46.23a5.363,5.363,0,0,0,1.053,4.421,5.189,5.189,0,0,0,4.042,1.768,7.577,7.577,0,0,0,7.2-6.1l.632-3.495h-3.41l-.589,3.41a3.416,3.416,0,0,1-3.284,2.779,2.233,2.233,0,0,1-1.768-.758,2.343,2.343,0,0,1-.463-1.937l2.695-15.326a3.417,3.417,0,0,1,3.284-2.779,2.233,2.233,0,0,1,1.768.758,2.343,2.343,0,0,1,.463,1.937l-.674,3.789,3.495-.379.589-3.326A5.023,5.023,0,0,0,348.96,24.8" transform="translate(-274.466 -19.579)"/>
    </g>
  </g>
</svg>
